<svg width="1136" height="155" fill="none" xmlns="http://www.w3.org/2000/svg"><path d="M447.1 1.6C442 5.2 442 5.1 442 75.1c0 70.9-.1 70.2 5.6 72.8 3.3 1.5 136.6 1.6 139.5.1 4.9-2.7 4.9-2.1 4.9-73.5 0-72.3.1-70.8-5.5-73.3C584.6.3 566.7 0 516.7 0c-60.6 0-67.5.2-69.6 1.6Zm32.6 19.5c6.9 2.6 10.5 10 8 16.2-3.7 8.8-13.4 11.5-20.1 5.6-7.7-6.7-6.2-17.5 2.9-21.5 3.7-1.6 5.6-1.7 9.2-.3Zm73.8 34.3c6.3 1.9 12 7.5 14.2 14 1.6 4.4 1.8 8.8 1.8 31.6v26.5h-22L547 104c-.5-24.3-.9-26.8-5-29-2.7-1.5-9.6-1.2-12.9.4-5 2.6-5.5 5.2-6.1 29.6l-.5 22.5h-22l-.3-35.8L500 56h22v4.7l.1 4.8 2-2.7c2.2-3 7.5-6.6 11.7-7.8 4.4-1.3 12.5-1.1 17.7.4Zm-66.7 36.3-.3 35.8h-22l-.3-35.8L464 56h23l-.2 35.7ZM80.2 22.6c-5.3 3.7-6.9 13-3.1 17.8 5.7 7.3 15.1 7.3 20.8 0 3.8-4.8 2.2-14.1-3.1-17.8-1.3-1-4.3-1.6-7.3-1.6s-6 .6-7.3 1.6ZM0 74.5V127h66v-21H23V22H0v52.5ZM192 74.5V127h22l.2-17.2.3-17.1 11.4 17.1 11.4 17.2h14c11 0 13.7-.3 13-1.3-.6-.6-6.9-9.2-14.1-19L237 88.9l14.6-16.4L266.1 56l-13.8.1h-13.8l-12 14.1-12 14.1-.3-31.2L214 22h-22v52.5ZM398 42.7v20.7l-2.7-2.6c-5.6-5.2-9-6.3-19.8-6.3-8.9 0-10.6.3-15.1 2.7-6.4 3.4-10.8 8.4-14.8 16.8-2.9 6.1-3.1 7.2-3.1 18 0 10.3.3 12.1 2.6 17 3.7 8 8.1 12.5 15.7 16.2 6 3 7.6 3.3 15.2 3.3 7.2 0 9.2-.4 13.5-2.7 2.8-1.4 5.9-3.5 6.9-4.7 2.8-3 3.6-2.6 3.6 1.9v4h20V22h-22v20.7Zm-9.2 31.8c5.5 2.4 8.1 5.3 9.8 11.3 4.1 13.9-6.2 25.8-20.3 23.7-5.1-.7-10.9-5.3-12.9-10.2-2.1-4.9-1.7-12.2.9-17.3 3.8-7.8 13.8-11.1 22.5-7.5ZM637 74.5V127h55v-8h-46V22h-9v52.5ZM971.7 31.8c-1.7 1.9-2.3 7.8-.9 9.8 1.1 1.6 4.8 3.4 7.2 3.4 2.8 0 7-4.3 7-7.3 0-1.3-.9-3.6-2.1-5.1-2.5-3.2-8.6-3.7-11.2-.8ZM147.5 54.9c-4.5 1.2-7.6 3-11.7 6.9l-3.8 3.6V56h-21v71h21.9l.3-22.3c.3-24.2.6-25.6 6.4-29.4 3.5-2.3 10.8-2.2 13.5.3 4.4 3.9 4.9 7.1 4.9 29.9V127h22v-24.3c0-26.5-.9-32.9-5.3-39.6-1.5-2.2-4.4-4.7-6.9-5.9-4.7-2.3-15.6-3.5-20.3-2.3Z" fill="#0A66C2"/><path d="M289 55.5c-7.3 2.1-12.7 5.4-17.9 11-7 7.7-8.6 12.2-8.6 25 0 10 .2 11.5 2.8 16.7 3.6 7.3 11.9 14.9 19.5 17.9 4.6 1.9 7.7 2.3 16.2 2.3 9.8.1 11-.1 17-3 3.6-1.7 8.3-4.7 10.4-6.6l3.9-3.4-7.7-5.7-7.8-5.7-4 3.4c-6.9 6-15.8 6.6-22.9 1.5-2.5-1.8-5.9-7.4-5.9-9.8 0-.8 7.7-1.1 25.6-1.1h25.7l-.6-9.3c-.6-10.9-2.4-16.5-7.5-23.2-5.6-7.4-12.9-10.8-24-11.2-5.6-.2-10.6.3-14.2 1.2ZM303.1 70c3.3 0 8.9 6 9.6 10.2l.6 3.8H284v-2.5c0-5.3 10.7-13.4 15.8-11.9.8.2 2.2.4 3.3.4ZM77 91.5V127h21V56H77v35.5ZM717.7 61.5c-17.3 6.4-25.9 27.2-19.1 46.8 2.2 6.5 10 14.8 16.6 17.8 4.4 2 7 2.4 14.8 2.4 8.8 0 10.1-.3 16.2-3.3 6.3-3.1 13.8-10 13.8-12.7 0-.6-1.4-1.8-3.1-2.6-3.2-1.5-3.2-1.5-8.3 3.6-5.7 5.7-10.3 7.5-19 7.5-10.5 0-18.9-5.9-22.6-15.7-3.4-9-5.7-8.3 27.1-8.3h29.2l-.7-5.3c-1.1-8.1-2.3-11.8-5.8-17.6-3.6-5.9-10.5-11.4-16.6-13.1-5.2-1.4-18-1.1-22.5.5Zm24.1 9.2c5.2 3.2 10 10 10.9 15.6l.6 3.7H705l.6-2.8c3.7-16.8 22.1-25.2 36.2-16.5ZM791.3 61.6c-5.7 2.1-13.9 9.6-16.8 15.4-6.7 13.3-4.6 31.3 5 41.8 7.2 8 21.5 12.2 32 9.3 5.7-1.5 13.2-6.5 15.5-10.3l2-3.3V127h9V61h-8v6c0 3.3-.2 6-.5 6s-2-1.6-3.7-3.5c-1.7-2-5.1-4.8-7.6-6.3-3.9-2.2-5.9-2.7-13.7-2.9-6.2-.2-10.3.2-13.2 1.3Zm24.4 8.2c11 5.7 16.3 20 12.4 33.7-2.2 7.3-9.8 14.8-17.3 17-19.4 5.6-36.4-14-30.4-35 1.4-4.5 2.9-6.9 6.9-10.9 2.9-2.9 6.8-5.7 8.7-6.4 5-1.6 14.8-.8 19.7 1.6ZM876.1 61c-4.3 1-8 3.8-10.6 7.8-1.1 1.7-2.3 3.1-2.7 3.2-.5 0-.8-2.5-.8-5.5V61h-8v66h9v-20.9c0-16.2.3-21.8 1.5-25.2 2.7-7.7 8.3-11.9 16.1-12.2 4.4-.2 4.4-.2 4.4-3.8 0-3-.4-3.8-2.2-4.3-1.3-.3-2.5-.5-2.8-.5-.3.1-2 .5-3.9.9ZM916.2 61.9c-2.3 1.1-5.7 3.2-7.6 4.6-1.8 1.4-3.6 2.5-3.9 2.5-.4 0-.7-1.8-.7-4v-4h-8v66h8V79.2l4.9-4.4c11.4-10.3 26.5-9.7 32.2 1.2 1.7 3.1 1.9 6 1.9 27.2V127h9.1l-.3-25.8c-.3-25.3-.3-25.8-2.8-30.2-1.4-2.4-4.5-5.8-6.8-7.5-3.9-2.7-5.2-3-13-3.3-7-.2-9.5.1-13 1.7ZM1020 62.6c-3 1.4-6.7 3.7-8.2 5.2l-2.8 2.6V61h-9v66h9V78l5.1-4c6.9-5.4 14.8-7.7 20.9-6.1 5.5 1.5 10.3 6 11.9 11 .7 2.4 1.1 12.3 1.1 26V127h8V76.2l-2.8-5.3c-2.2-4.3-3.8-5.9-8.1-8.1-7.3-3.8-17.1-3.9-25.1-.2ZM1087.5 62.8c-6.8 3.3-12.7 9.2-15.9 16.1-1.7 3.8-2.1 6.5-2.1 15.6 0 10.6.1 11.2 3.4 17.3 6.1 11.3 15.4 16.7 28.6 16.7 10 0 16-2.6 22.4-9.3l4.4-4.7-.6 8.2c-.7 9.6-2.9 14.7-8.3 19.1-8.3 6.8-26.2 6.9-39.4.2l-4-2v4.5c0 3.9.4 4.6 2.8 5.9 1.6.8 6.6 2.2 11.2 3.2 21.4 4.3 40.1-3.2 44.4-17.7 1.3-4.3 1.6-11.4 1.6-40.1V61h-8v6c0 3.3-.2 6-.5 6s-2.2-1.9-4.3-4.2c-5.6-6.2-12-8.8-21.7-8.8-6.7 0-9 .5-14 2.8Zm26.1 7c10.3 5.3 16 18.2 13.4 30.6-3.5 17.2-21.3 26-35.9 18-20.7-11.2-17.6-43.1 4.9-50.5 4-1.3 13.3-.3 17.6 1.9ZM963 64.4v3.5l5.3.3 5.2.3.3 29.2.2 29.3h8V61h-19v3.4Z" fill="#0A66C2"/></svg>