<?xml version="1.0" encoding="utf-8"?>
<!-- Generator: Adobe Illustrator 19.2.1, SVG Export Plug-In . SVG Version: 6.00 Build 0)  -->
<svg version="1.1" id="layer" xmlns="http://www.w3.org/2000/svg" xmlns:xlink="http://www.w3.org/1999/xlink" x="0px" y="0px"
	 viewBox="0 0 652 652" style="enable-background:new 0 0 652 652;" xml:space="preserve">
<style type="text/css">
	.st0{fill:#27B67C;}
	.st1{fill:#FFFFFF;}
</style>
<path d="M107.6,285.4l-23.2,64c-0.8,2.4-2.4,4.3-4.3,5.5c-2,1.2-3.9,1.6-6.7,1.6c-3.5,0-6.3-0.8-7.9-2c-1.6-1.6-3.1-3.5-3.9-5.9
	L40,290.5v58.9c0,2.4-0.8,4.3-2,5.9c-1.6,1.6-3.9,2.4-7.9,2.4c-3.5,0-6.3-0.8-7.5-2c-1.6-1.6-2.4-3.9-2.4-6.7v-84.4
	c0-3.5,1.2-6.3,3.5-7.9c2.4-1.6,5.9-2.4,9.8-2.4c4.3,0,7.5,0.8,9.8,2.4c2.4,1.6,3.9,3.9,4.7,6.7l25.5,71.9l24-70.7
	c1.2-3.5,3.1-6.3,5.5-7.9c2.7-1.6,6.3-2.4,10.6-2.4c3.9,0,7.5,0.8,9.8,2.4c2.4,1.6,3.5,3.9,3.5,7.1v85.6c0,2.4-0.8,4.3-2,5.9
	c-1.6,1.6-3.9,2.4-7.9,2.4c-3.5,0-5.9-0.8-7.5-2.4c-1.6-1.6-2.4-3.5-2.4-6.7C107.6,348.6,107.6,285.4,107.6,285.4z M204.6,349.4
	c0,2.7-0.8,4.7-2,6.3c-1.6,1.2-3.9,2-7.1,2c-2.7,0-5.1-0.8-7.1-2c-1.6-1.2-2.7-3.1-2.7-6.3v-2.7l-3.5,3.9c0,0-2.7,2.7-4.7,3.5
	c-2,1.2-3.9,2-6.7,2.7c-2.4,0.8-5.5,1.2-8.6,1.2c-7.9,0-13.7-2-18.1-5.9c-4.3-3.9-6.7-9.4-6.7-16.1c0-3.9,0.8-7.1,2-9.8
	c1.2-2.7,3.1-5.1,5.5-6.7c2.4-2,5.1-3.1,7.9-4.3c3.1-1.2,6.3-2,9.8-2.4c3.5-0.8,7.5-1.2,11-1.6c3.9-0.4,7.9-0.8,12.2-1.2v-2.7
	c0-1.6,0-2.7-0.4-4.3c-0.4-1.6-1.2-2.7-2-3.9c-0.8-1.2-2.4-2-3.9-2.7c-1.6-0.8-3.5-1.2-6.3-1.2c-1.6,0-3.1,0-4.3,0.4
	c-1.2,0-2.7,0.4-3.9,0.8s-2.4,1.2-3.9,2c-1.2,0.8-2.7,1.6-4.3,2.7l-3.5,2.4c-1.2,0.4-2.4,0.8-4.3,0.8c-2.4,0-4.3-0.8-5.9-2.7
	c-1.6-1.6-2.7-3.9-2.7-6.3c0-1.6,0.8-3.5,2-5.5s3.5-3.5,6.3-5.1c2.7-1.6,6.3-2.7,10.2-3.9c3.9-1.2,8.6-1.6,14.1-1.6
	c11.4,0,19.2,2.4,24.3,6.7c5.1,4.3,7.5,11.4,7.5,20.4C204.6,306.2,204.6,349.4,204.6,349.4z M185.7,321.9l-10.6,1.2
	c-3.5,0.4-5.9,0.8-7.5,1.2c-4.7,0.8-7.9,2.4-9,4.3c-1.6,2-2,3.5-2,5.5c0,2.4,0.8,4.3,2.4,5.9c1.6,1.6,4.3,2,7.9,2
	c5.9,0,10.6-1.6,14.1-4.3c3.1-2.7,5.1-6.3,5.1-10.6v-5.1L185.7,321.9z M288.2,351.7c0,6.7-0.8,12.2-2.4,16.9
	c-1.6,4.7-3.9,8.6-7.1,11.4c-3.1,3.1-7.1,5.1-11.8,6.7c-4.7,1.6-9.8,2-15.7,2c-7.1,0-12.6-0.8-16.9-2c-3.9-1.2-7.1-2.7-9-3.9
	c-2.4-1.6-3.5-3.9-3.5-6.7c0-2.4,0.8-4.7,2.4-6.7s3.5-3.1,6.3-3.1c1.6,0,2.7,0.4,3.9,0.8c1.2,0.8,2.4,1.2,3.9,2
	c1.6,0.8,3.1,1.6,5.1,2c2,0.8,4.7,0.8,7.9,0.8c5.5,0,9.4-1.6,12.6-4.7s4.7-7.5,4.7-13.4v-8.2c-2,2.4-4.7,4.7-8.2,6.7
	s-8.2,3.1-13.4,3.1c-5.1,0-9.4-0.8-13.4-2.7s-7.5-4.3-10.2-7.9c-2.7-3.1-5.1-7.5-6.3-12.2c-1.6-4.7-2.4-9.8-2.4-15.7
	c0-5.9,0.8-11.4,2.4-16.1c1.6-4.7,3.9-9,6.7-12.2c2.7-3.5,6.3-5.9,10.2-7.9c3.9-2,8.6-2.7,13.4-2.7c3.1,0,5.5,0.4,7.9,1.2
	c2.4,0.8,4.3,1.6,5.9,2.7c1.6,1.2,3.1,2,4.3,3.5c1.2,1.2,2.4,2.4,3.1,3.5v-2.4c0-2.4,0.8-3.9,2.7-5.1c2-0.8,3.9-1.6,6.7-1.6
	c3.5,0,6.3,0.8,7.9,2.4s2.4,3.9,2.4,6.3C288.2,288.5,288.2,351.7,288.2,351.7z M269.4,318c0-6.7-1.6-11.8-4.3-16.1
	c-2.7-3.9-7.1-6.3-13-6.3c-5.1,0-9.4,2-12.2,5.9c-2.7,3.9-4.3,9.4-4.3,15.7c0,6.7,1.6,11.8,4.3,15.7c2.7,3.9,6.7,5.9,11.8,5.9
	c5.9,0,10.2-2,13-5.5C267.4,329.7,269.4,325,269.4,318z M541.5,334.5c0,8.2-3.1,14.1-9,18.5c-5.9,3.9-14.1,6.3-24.3,6.3
	c-5.9,0-11-0.8-15.7-2s-8.2-3.1-11-5.1c-1.2-0.8-2.4-2-2.7-3.1c-0.8-1.2-0.8-2.4-0.8-3.1c0-2,0.4-3.9,1.6-5.5c0.8-1.6,2-2.7,3.1-3.5
	c1.2-0.8,2.7-1.6,4.3-1.6c1.6,0,2.7,0.4,4.3,1.2c1.2,0.8,2.7,2,4.7,3.1c1.6,1.2,3.5,2,5.9,3.1c2.4,0.8,5.1,1.2,8.6,1.2
	c4.3,0,7.1-0.8,9-2c2-1.2,2.7-3.1,2.7-5.5c0-1.6-0.8-3.5-2-4.7c-1.2-1.6-3.9-2.4-8.2-3.1l-8.6-1.6c-3.5-0.4-7.1-1.6-9.8-2.7
	c-3.1-1.2-5.5-2.7-7.9-4.3c-2-2-3.9-3.9-5.1-6.7c-1.2-2.7-1.6-5.9-1.6-9.4c0-3.9,0.8-7.5,2.4-10.2c1.6-3.1,3.9-5.5,6.7-7.9
	c2.7-2,6.3-3.5,10.2-4.7s8.2-1.6,13-1.6c6.7,0,12.2,0.8,16.5,2.4s7.5,3.1,9.4,4.7c1.2,1.2,2,2,2.7,3.1c0.4,1.2,0.8,2,0.8,3.1
	c0,2.4-0.8,4.3-2,5.9l-2.4,2.4c-0.8,0.4-2,0.8-3.1,0.8s-2.4-0.4-3.1-0.8c-1.2-0.4-2-0.8-2.7-1.6c-2.7-1.6-5.1-2.7-7.5-3.9
	c-2.4-0.8-5.5-1.6-9.4-1.6s-6.7,0.8-8.2,2c-2,1.2-2.7,2.7-2.7,4.7c0,1.6,0.8,3.1,2,4.7c1.2,1.2,4.3,2.4,8.6,3.1l7.9,1.6
	c9,1.6,15.3,4.3,19.2,7.9C539.5,321.9,541.5,327.4,541.5,334.5L541.5,334.5z M593.7,278.7c5.1,0,9.4,0.8,12.6,2.4s6.3,3.9,8.6,7.1
	s3.9,7.1,4.7,11c0.4,3.9,0.8,7.9,0.8,11.4v38.9c0,2.7-0.8,4.7-2.4,6.3c-1.6,1.2-4.3,2-7.5,2c-2.7,0-5.5-0.8-7.1-2
	c-2-1.2-2.7-3.1-2.7-6.3v-38.5c0-4.3-0.4-7.5-1.2-9.4c-0.8-2-2.4-3.1-3.9-3.9c-2-0.8-3.9-1.2-6.7-1.2c-2.4,0-4.7,0.4-6.7,1.2
	c-2,0.8-3.5,1.6-4.7,2.7c-1.2,1.2-2.4,2.4-2.7,3.9s-1.2,2.7-1.6,3.9c-0.4,1.6-0.8,3.9-0.8,5.9V349c0,3.1-0.8,5.1-2.4,6.7
	c-1.6,1.2-4.3,2-7.9,2c-3.1,0-5.5-0.8-7.1-2s-2.7-3.5-2.7-6.3v-87.2c0-2.7,0.8-4.7,2.4-5.9c1.6-1.6,4.3-2,7.9-2c1.2,0,2.4,0,3.5,0.4
	c1.2,0.4,2.4,0.8,3.1,1.2c0.8,0.4,1.6,1.6,2.4,2.4c0.4,1.2,0.8,2.4,0.8,4.3v27.1c2-2.7,4.7-5.1,8.6-7.5
	C583.9,279.9,588.6,278.7,593.7,278.7z"/>
<path class="st0" d="M422.9,287.7c-12.2,0-23.2,4.7-31.8,12.2c-4.3-21.6-23.6-38.1-46.7-38.1c-26.3,0-47.5,21.2-47.5,47.5
	s21.2,47.5,47.5,47.5c12.2,0,23.2-4.7,31.8-12.2c4.3,21.6,23.6,38.1,46.7,38.1c26.3,0,47.5-21.2,47.5-47.5
	C470.4,309.3,449.2,287.7,422.9,287.7z M382,296.4l-43.2,44c-0.4,0.4-1.2,0.4-2,0l-29.1-27.9c-0.4-0.4-0.4-1.2,0-2l7.9-8.2
	c0.4-0.4,1.2-0.4,2,0l19.2,18.1c0.4,0.4,0.8,0.4,0.8,0l33.8-33.4c0.4-0.4,1.2-0.4,2,0l8.6,7.9C382.4,294.8,382.4,295.6,382,296.4z
	 M417.4,366.3c-0.4,0.4-1.2,0.4-2,0l-29.1-27.9c-0.4-0.4-0.4-1.2,0-2l7.9-8.2c0.4-0.4,1.2-0.4,2,0l19.2,18.1c0.4,0.4,0.8,0.4,0.8,0
	l33.8-33.4c0.4-0.4,1.2-0.4,2,0l8.6,7.9c0.4,0.4,0.4,1.2,0,2C460.6,322.7,417.4,366.3,417.4,366.3z"/>
<path class="st1" d="M383.2,294.8l-43.2,44c-0.4,0.4-1.2,0.4-2,0L309,310.9c-0.4-0.4-0.4-1.2,0-2l7.9-8.2c0.4-0.4,1.2-0.4,2,0
	l19.2,18.1c0.4,0.4,0.8,0.4,0.8,0l33.8-33.4c0.4-0.4,1.2-0.4,2,0l8.6,7.9C383.6,293.6,383.6,294.4,383.2,294.8z M418.6,364.7
	c-0.4,0.4-1.2,0.4-2,0l-29.1-27.9c-0.4-0.4-0.4-1.2,0-2l7.9-8.2c0.4-0.4,1.2-0.4,2,0l19.2,18.1c0.4,0.4,0.8,0.4,0.8,0l33.8-33.4
	c0.4-0.4,1.2-0.4,2,0l8.6,7.9c0.4,0.4,0.4,1.2,0,2C461.8,321.1,418.6,364.7,418.6,364.7z"/>
</svg>
