<?xml version="1.0" encoding="utf-8"?>
<!-- Generator: Adobe Illustrator 16.0.0, SVG Export Plug-In . SVG Version: 6.00 Build 0)  -->
<!DOCTYPE svg PUBLIC "-//W3C//DTD SVG 1.1//EN" "http://www.w3.org/Graphics/SVG/1.1/DTD/svg11.dtd">
<svg version="1.1" id="Layer_1" xmlns="http://www.w3.org/2000/svg" xmlns:xlink="http://www.w3.org/1999/xlink" x="0px" y="0px"
	 width="1905px" height="335px" viewBox="0 0 1905 335" enable-background="new 0 0 1905 335" xml:space="preserve">
<g>
	<path id="mark_3_" fill="#01B3E3" d="M115.212,1.336L3,64.944l0.01,146.511l0,0c-0.21,67.287,54.823,122,122.912,122.208
		c22.513,0.067,43.64-5.829,61.832-16.196l0,0l90.896-51.616c35.855-18.381,60.408-55.355,60.542-98.047l0.008-153.013l0,0l0,0
		L316.953,1.935L225.81,52.827l0.008,0.01l0,0l-0.028,159.292c-0.02,6.779-0.321,11.735-2.109,20.109
		c-3.036,12.77-7.31,21.752-8.059,23.273c-6.952-0.475-21.631-4.454-33.348-11.358c-5.849-3.36-12.809-8.343-19.083-14.212
		c-4.057-4.027-7.728-8.462-10.919-13.162c-3.219-4.748-5.992-9.817-8.213-15.067c-2.271-5.348-4.007-10.938-5.164-16.616
		c-1.188-5.838-1.455-11.859-1.444-17.892l0,0l0.076-153.001L115.212,1.336z M166.856,303.669
		c-6.087,2.526-12.451,4.455-18.926,5.744c-6.646,1.322-12.781,1.984-19.635,1.966c-6.855-0.021-13.703-0.723-20.348-2.087
		c-6.467-1.328-12.817-3.298-18.886-5.861c-5.962-2.518-11.716-5.622-17.101-9.238c-13.88-9.637-21.04-17.984-27.193-27.032
		c-3.626-5.336-6.73-11.044-9.247-16.949c-2.554-6.007-4.511-12.303-5.81-18.698c-1.339-6.566-1.587-13.338-1.569-20.116
		l-0.008-133.73l84.145-50.75l-0.104,140.221l0,0c-0.163,53.288,39.537,97.764,90.229,108.51c-1.984,2.346-3.417,4.596-5.61,6.752
		c-4.588,4.502-9.533,8.717-14.887,12.269C176.501,298.247,172.827,301.192,166.856,303.669z M312.602,185.884
		c-1.196,5.678-2.961,11.249-5.268,16.589c-6.116,13.405-16.067,24.798-24.385,32.142c-16.976,15.428-38.131,20.192-40.571,20.204
		c5.089-13.292,8.516-27.54,8.572-42.588l0,0l-0.008-146.545l0,0l63.114-38.17l0.028,140.222
		C314.065,173.77,313.828,180.042,312.602,185.884z"/>
	<g id="wordmark_2_">
		<g>
			<path fill="#2D3C49" d="M624.99,184.602c0,27.661-23.349,50.534-54.921,50.534c-31.57,0-54.329-22.873-54.329-50.534V85.614
				h-16.789v99.223c0,35.655,27.802,66.942,71.118,66.942s71.782-31.287,71.782-66.942V85.614h-16.854v98.988H624.99z
				 M803.998,85.614H751.15l0.018,162.017l54.643-0.012c48.835,0,79.883-29.938,79.883-81.136
				C885.686,115.748,852.82,85.614,803.998,85.614z M802.373,231.156l-34.409-0.145V102.23l34.409-0.048
				c39.795,0,66.646,24.857,66.646,64.3C869.019,207.911,842.405,231.156,802.373,231.156z M1271.99,235.077
				c-38.639,0-66.503-31.57-66.503-69.982c0-37.933,27.857-67.193,66.037-67.193c30.541,0,49.514,17.831,49.514,17.831l8.563-11.647
				c0,0-19.662-20.871-58.545-20.871c-46.515,0-82.236,35.491-82.236,82.111c0,46.858,34.8,86.253,82.938,86.253
				c40.031,0,62.237-27.053,62.237-27.053l-9.253-11.202C1324.743,213.337,1304.846,235.077,1271.99,235.077z M1440.533,247.631
				h16.816V85.614h-16.816V247.631z M1554.026,102.23h58.849l-0.011,145.389h16.827V102.23h58.851V85.614h-134.516V102.23
				L1554.026,102.23z M1883.949,85.614l-52.156,74.638h-0.463l-52.672-74.638h-18.278l62.678,92.068v69.949h16.814v-69.949
				L1902,85.614H1883.949z M1027.958,85.614l-66.307,161.884h17.537l17.545-43.327l73.8-14.942l23.72,58.277h17.533l-66.303-161.884
				h-17.525V85.614z M1004.116,186.3l32.377-78.479h0.455l27.347,66.29L1004.116,186.3z"/>
		</g>
	</g>
</g>
</svg>
