<svg width="176" height="155" viewBox="0 0 176 155" fill="none" xmlns="http://www.w3.org/2000/svg">
<path d="M107.787 40.8256C108.457 41.4598 109.334 41.7938 110.211 41.7938C111.088 41.7938 111.965 41.4598 112.631 40.8256C113.972 39.5571 113.972 37.4874 112.631 36.2189L112.586 36.1855C111.249 34.917 109.078 34.917 107.741 36.1855C106.405 37.454 106.405 39.5237 107.741 40.7922L107.787 40.8256Z" fill="#802BB1"/>
<path d="M163.055 71.6702L174.997 60.3204C175.976 59.3858 176.271 57.9839 175.737 56.7488C175.208 55.5471 173.959 54.746 172.573 54.746H147.819C144.585 42.1611 137.793 30.6776 128.086 21.4309C113.983 8.0115 95.2252 0.60083 75.2779 0.60083C55.327 0.60083 36.5723 8.0115 22.4661 21.4309C8.35978 34.8503 0.592773 52.7095 0.592773 71.6702C0.592773 90.6643 8.35978 108.49 22.4661 121.943C26.6618 125.915 31.268 129.387 36.197 132.258L25.8759 149.616C25.276 150.617 25.2832 151.853 25.8971 152.854C26.5111 153.856 27.637 154.49 28.8544 154.49H46.5005C47.7353 154.49 48.8719 153.856 49.4823 152.821L56.7793 140.57C62.7537 142.005 68.9527 142.74 75.2779 142.74C81.5996 142.74 87.802 142.005 93.7764 140.57L101.073 152.821C101.68 153.856 102.82 154.49 104.055 154.49H121.698C122.919 154.49 124.045 153.856 124.659 152.854C125.273 151.853 125.279 150.617 124.68 149.616L114.359 132.258C119.284 129.387 123.894 125.915 128.09 121.943C137.793 112.696 144.585 101.213 147.819 88.5949H172.573C173.959 88.5949 175.208 87.8268 175.737 86.5917C176.271 85.39 175.976 83.9881 174.997 83.0535L163.055 71.6702ZM156.79 68.4323H132.882L140.393 61.2552H164.304L156.79 68.4323ZM44.5008 147.947H34.7307L42.1889 135.429C44.7464 136.631 47.374 137.699 50.0647 138.6L44.5008 147.947ZM115.822 147.947H106.051L100.491 138.6C103.178 137.699 105.806 136.631 108.367 135.429L115.822 147.947ZM123.241 117.303C118.716 121.609 113.664 125.248 108.223 128.119C108.153 128.152 108.086 128.185 108.019 128.219C107.977 128.252 107.942 128.285 107.9 128.285C103.726 130.488 99.3297 132.224 94.7656 133.526C94.5867 133.56 94.4079 133.626 94.2325 133.693C88.1493 135.362 81.7855 136.23 75.2779 136.23C68.7702 136.23 62.403 135.362 56.3198 133.693C56.1444 133.626 55.969 133.56 55.7901 133.526C51.226 132.224 46.8268 130.488 42.6521 128.285C42.6135 128.285 42.5749 128.252 42.5328 128.219C42.4697 128.185 42.3995 128.152 42.3328 128.119C36.8917 125.248 31.8363 121.609 27.3108 117.303C14.499 105.119 7.44421 88.9285 7.44421 71.6702C7.44421 54.4454 14.499 38.2218 27.3108 26.0375C40.1225 13.8533 57.1583 7.14389 75.2779 7.14389C93.3975 7.14389 110.43 13.8533 123.241 26.0375C131.661 34.0491 137.667 43.9304 140.747 54.746H138.975C138.067 54.746 137.193 55.0795 136.551 55.7138L127.458 64.3599C126.543 58.418 124.529 52.6761 121.487 47.4352C120.572 45.8663 118.488 45.2654 116.832 46.1333C115.176 47.0346 114.573 49.0044 115.488 50.5733C118.74 56.1814 120.558 62.2901 121.024 68.4323H105.918C105.153 61.8228 102.087 55.714 97.0809 50.9404C91.2574 45.3991 83.5115 42.3277 75.2779 42.3277C67.0407 42.3277 59.2981 45.3991 53.4746 50.9404C47.6511 56.4818 44.4447 63.8256 44.4447 71.6702C44.4447 79.5149 47.6511 86.8921 53.4746 92.4335C59.2981 97.9748 67.0407 101.013 75.2779 101.013C83.5115 101.013 91.2574 97.9748 97.0809 92.4335C102.087 87.6599 105.153 81.5511 105.918 74.9416H121.007C120.189 85.1229 115.671 95.004 107.739 102.582C99.0666 110.827 87.5389 115.367 75.2779 115.367C63.0169 115.367 51.4856 110.827 42.817 102.582C34.1448 94.303 29.3702 83.3538 29.3702 71.6702C29.3702 60.0201 34.1448 49.0376 42.817 40.7923C57.2004 27.1059 79.6665 24.0683 97.4529 33.4151C99.1087 34.2831 101.193 33.7156 102.108 32.1466C103.02 30.5443 102.421 28.5745 100.765 27.7066C90.9488 22.5659 79.3964 20.4963 68.2264 21.9317C56.6881 23.4005 46.2232 28.341 37.972 36.1857C28.0054 45.666 22.5187 58.2842 22.5187 71.6702C22.5187 85.0896 28.0054 97.7079 37.972 107.188C47.9352 116.669 61.1856 121.876 75.2779 121.876C89.3701 121.876 102.62 116.669 112.583 107.188C120.68 99.4771 125.816 89.7295 127.472 79.014L136.551 87.6601C137.193 88.261 138.067 88.5949 138.975 88.5949H140.747C137.663 99.4439 131.657 109.325 123.241 117.303ZM86.4652 65.5282C85.5216 63.9592 83.4237 63.4252 81.7854 64.3265L73.5658 68.8663C72.5028 69.4338 71.8504 70.5019 71.8504 71.6702C71.8504 72.8386 72.5028 73.9067 73.5658 74.5076L81.7854 79.014C82.3257 79.3145 82.9152 79.448 83.4975 79.448C84.6798 79.448 85.8303 78.8805 86.4652 77.8123C87.023 76.911 87.0547 75.8429 86.6547 74.9416H99.014C98.2878 79.7819 95.9479 84.2884 92.2362 87.8268C87.7037 92.133 81.6838 94.5031 75.2779 94.5031C68.872 94.5031 62.8485 92.133 58.3195 87.8268C53.7905 83.4872 51.2961 77.7791 51.2961 71.6702C51.2961 65.5948 53.7905 59.8533 58.3195 55.5471C62.8485 51.2409 68.872 48.8708 75.2779 48.8708C81.6838 48.8708 87.7037 51.2409 92.2362 55.5471C95.9479 59.0856 98.2878 63.5586 99.014 68.4323H86.6584C87.0548 67.4977 87.023 66.4628 86.4652 65.5282ZM140.393 82.0853L132.882 74.9416H156.79L164.304 82.0853H140.393Z" fill="#802BB1"/>
</svg>
