<svg width="30" height="30" viewBox="0 0 30 30" fill="none" xmlns="http://www.w3.org/2000/svg">
<path d="M12.7262 3.6001C5.14701 3.6001 0.599609 9.6799 0.599609 12.7201C0.599609 15.7603 2.11521 18.0403 5.14701 18.0403C8.17881 18.0403 9.69501 18.7999 9.69501 21.0799C9.69501 24.1195 11.9684 26.3995 15.0002 26.3995C24.8534 26.3995 29.4002 21.0799 29.4002 15.7603C29.3996 6.6403 21.8192 3.6001 12.7262 3.6001ZM10.8314 6.6403C11.0806 6.64061 11.3272 6.69 11.5573 6.78563C11.7873 6.88127 11.9963 7.02128 12.1722 7.19767C12.3482 7.37407 12.4877 7.58339 12.5827 7.81369C12.6778 8.04399 12.7265 8.29075 12.7262 8.5399C12.7262 9.5899 11.8778 10.4401 10.8314 10.4401C9.78501 10.4401 8.93661 9.5893 8.93661 8.5399C8.93629 8.29075 8.98505 8.04399 9.08011 7.81369C9.17516 7.58339 9.31464 7.37407 9.49059 7.19767C9.66654 7.02128 9.87551 6.88127 10.1056 6.78563C10.3356 6.69 10.5823 6.64061 10.8314 6.6403ZM16.8938 6.6403C17.143 6.64061 17.3896 6.69 17.6197 6.78563C17.8497 6.88127 18.0587 7.02128 18.2346 7.19767C18.4106 7.37407 18.5501 7.58339 18.6451 7.81369C18.7402 8.04399 18.7889 8.29075 18.7886 8.5399C18.789 8.78909 18.7403 9.03592 18.6453 9.26629C18.5503 9.49666 18.4108 9.70605 18.2348 9.88251C18.0589 10.059 17.8499 10.199 17.6198 10.2947C17.3897 10.3904 17.143 10.4398 16.8938 10.4401C16.6447 10.4397 16.398 10.3902 16.168 10.2945C15.938 10.1988 15.7291 10.0588 15.5532 9.8823C15.3773 9.70585 15.2379 9.49648 15.1429 9.26615C15.0479 9.03582 14.9992 8.78904 14.9996 8.5399C14.999 8.03683 15.1982 7.55411 15.5534 7.19788C15.9086 6.84166 16.3907 6.64109 16.8938 6.6403ZM22.9574 9.6799C23.2067 9.68013 23.4534 9.72948 23.6836 9.82512C23.9137 9.92075 24.1228 10.0608 24.2988 10.2373C24.4749 10.4137 24.6144 10.6232 24.7094 10.8536C24.8045 11.084 24.8532 11.3309 24.8528 11.5801C24.8532 11.8293 24.8045 12.0762 24.7094 12.3065C24.6144 12.5369 24.4748 12.7463 24.2988 12.9227C24.1228 13.0991 23.9137 13.2391 23.6835 13.3347C23.4534 13.4303 23.2066 13.4795 22.9574 13.4797C22.7083 13.4795 22.4616 13.4301 22.2316 13.3345C22.0015 13.2389 21.7925 13.0989 21.6166 12.9225C21.4407 12.746 21.3013 12.5367 21.2063 12.3064C21.1114 12.076 21.0627 11.8292 21.0632 11.5801C21.0627 11.3309 21.1114 11.0841 21.2063 10.8537C21.3013 10.6234 21.4407 10.414 21.6166 10.2375C21.7925 10.0611 22.0015 9.92098 22.2315 9.8253C22.4616 9.72962 22.7082 9.68021 22.9574 9.6799ZM5.52621 11.2003C5.7753 11.2005 6.0219 11.2498 6.25192 11.3454C6.48194 11.441 6.69087 11.581 6.86678 11.7573C7.04269 11.9337 7.18213 12.143 7.27712 12.3732C7.37211 12.6035 7.4208 12.8502 7.42041 13.0993C7.42041 14.1493 6.57201 14.9995 5.52621 14.9995C4.48041 14.9995 3.63141 14.1487 3.63141 13.0993C3.63093 12.5962 3.83027 12.1136 4.1856 11.7575C4.54093 11.4013 5.02315 11.2009 5.52621 11.2003ZM14.9996 18.7999C16.2554 18.7999 17.273 19.8199 17.273 21.0805C17.273 22.3393 16.2554 23.3599 14.9996 23.3599C13.7438 23.3599 12.7262 22.3393 12.7262 21.0805C12.7257 20.7815 12.784 20.4852 12.898 20.2088C13.012 19.9323 13.1793 19.681 13.3904 19.4692C13.6015 19.2574 13.8523 19.0893 14.1284 18.9744C14.4045 18.8596 14.7006 18.8003 14.9996 18.7999Z" fill="#F23E36"/>
</svg>
