<svg width="30" height="30" viewBox="0 0 30 30" fill="none" xmlns="http://www.w3.org/2000/svg">
<path d="M5 25L25 25C27.0675 25 28.75 23.3175 28.75 21.25L28.75 8.75C28.75 6.6825 27.0675 5 25 5L5 5C2.9325 5 1.25 6.6825 1.25 8.75L1.25 21.25C1.25 23.3175 2.9325 25 5 25ZM25 7.5C25.6888 7.5 26.25 8.06125 26.25 8.75V21.25C26.25 21.9387 25.6888 22.5 25 22.5L5 22.5C4.31125 22.5 3.75 21.9387 3.75 21.25L3.75 8.75C3.75 8.06125 4.31125 7.5 5 7.5L25 7.5ZM17.5 18.75H22.5C22.8315 18.75 23.1495 18.6183 23.3839 18.3839C23.6183 18.1495 23.75 17.8315 23.75 17.5C23.75 17.1685 23.6183 16.8505 23.3839 16.6161C23.1495 16.3817 22.8315 16.25 22.5 16.25H17.5C17.1685 16.25 16.8505 16.3817 16.6161 16.6161C16.3817 16.8505 16.25 17.1685 16.25 17.5C16.25 17.8315 16.3817 18.1495 16.6161 18.3839C16.8505 18.6183 17.1685 18.75 17.5 18.75ZM17.5 13.75L22.5 13.75C22.8315 13.75 23.1495 13.6183 23.3839 13.3839C23.6183 13.1495 23.75 12.8315 23.75 12.5C23.75 12.1685 23.6183 11.8505 23.3839 11.6161C23.1495 11.3817 22.8315 11.25 22.5 11.25L17.5 11.25C17.1685 11.25 16.8505 11.3817 16.6161 11.6161C16.3817 11.8505 16.25 12.1685 16.25 12.5C16.25 12.8315 16.3817 13.1495 16.6161 13.3839C16.8505 13.6183 17.1685 13.75 17.5 13.75Z" fill="#F8B73A"/>
<path d="M10 15.625C8.61929 15.625 7.5 14.5057 7.5 13.125C7.5 11.7443 8.61929 10.625 10 10.625C11.3807 10.625 12.5 11.7443 12.5 13.125C12.5 14.5057 11.3807 15.625 10 15.625Z" fill="#F8B73A"/>
<path d="M10 16.6951C11.9525 16.6951 13.125 17.5888 13.125 18.4813C13.125 18.9276 11.9525 19.3751 10 19.3751C8.1675 19.3751 6.875 18.9288 6.875 18.4813C6.875 17.5888 8.1 16.6951 10 16.6951Z" fill="#F8B73A"/>
</svg>
