<svg width="33" height="29" viewBox="0 0 33 29" fill="none" xmlns="http://www.w3.org/2000/svg">
<path d="M16.5148 1.76169e-06C16.1073 -0.000452852 15.707 0.0870869 15.355 0.253624C15.003 0.420162 14.7121 0.659689 14.5121 0.947591C14.3121 1.23549 14.2102 1.56138 14.217 1.89177C14.2238 2.22215 14.3389 2.54512 14.5506 2.82747C14.7623 3.10982 15.0629 3.34137 15.4215 3.49833C15.7801 3.65529 16.1838 3.73199 16.5911 3.72055C16.9984 3.70911 17.3946 3.60995 17.7389 3.43324C18.0833 3.25654 18.3634 3.00868 18.5505 2.71513C21.8604 4.24608 24.2835 9.32713 24.2835 15.2359C24.2835 17.7383 23.8529 20.1369 23.0541 22.2055C23.0163 22.3039 23.0281 22.4105 23.0871 22.5017C23.146 22.593 23.2473 22.6616 23.3685 22.6925C23.4897 22.7232 23.6209 22.7137 23.7334 22.6662C23.846 22.6186 23.9307 22.5368 23.9691 22.4388C24.7977 20.2915 25.2433 17.8157 25.2433 15.2359C25.2433 8.961 22.6025 3.53196 18.8039 1.94058C18.8039 1.914 18.8083 1.88742 18.8083 1.85963C18.8083 0.833752 17.7815 1.76169e-06 16.5148 1.76169e-06ZM16.5148 0.77696C16.869 0.77696 17.2086 0.891026 17.459 1.09407C17.7094 1.29711 17.8501 1.57249 17.8501 1.85963C17.8501 2.14677 17.7094 2.42215 17.459 2.62519C17.2086 2.82823 16.869 2.94229 16.5148 2.94229C16.1607 2.94229 15.8211 2.82823 15.5707 2.62519C15.3202 2.42215 15.1796 2.14677 15.1796 1.85963C15.1796 1.57249 15.3202 1.29711 15.5707 1.09407C15.8211 0.891026 16.1607 0.77696 16.5148 0.77696ZM8.33928 5.97883C5.25893 5.9885 2.90432 6.78238 1.80004 8.33388C0.700232 9.87692 1.01468 11.9226 2.56007 14.1109C2.62331 14.2005 2.72784 14.266 2.85067 14.2931C2.9735 14.3202 3.10457 14.3066 3.21504 14.2553C3.32551 14.204 3.40633 14.1193 3.43973 14.0197C3.47313 13.9201 3.45636 13.8138 3.39313 13.7243C1.99974 11.7547 1.72851 9.98808 2.63011 8.72175C3.85212 7.0035 7.15006 6.35946 11.4703 6.99746C11.5928 7.01096 11.7169 6.98565 11.8169 6.92678C11.9169 6.86792 11.985 6.78005 12.0071 6.68147C12.0292 6.5829 12.0035 6.48121 11.9355 6.39759C11.8674 6.31397 11.7622 6.25486 11.6417 6.23258C10.5527 6.06646 9.44733 5.98152 8.33928 5.97883ZM24.8096 6.00058C24.6869 6.00475 24.5709 6.04687 24.4854 6.11828C24.3999 6.18969 24.3514 6.28496 24.3499 6.38449C24.3483 6.48401 24.3939 6.58023 24.4772 6.65334C24.5605 6.72645 24.6752 6.7709 24.7977 6.77754C27.5308 6.80654 29.5009 7.49771 30.3861 8.74229C31.6081 10.4569 30.6544 13.085 27.8259 15.7953C27.7441 15.8741 27.7041 15.9759 27.7147 16.0785C27.7253 16.1811 27.7857 16.2761 27.8825 16.3427C27.9794 16.4092 28.1049 16.4418 28.2314 16.4334C28.358 16.425 28.4752 16.3763 28.5576 16.298C31.6171 13.3666 32.6856 10.4183 31.2162 8.35321C30.1358 6.83433 27.8482 6.03321 24.8096 6.00058ZM20.7889 6.35342C20.7563 6.35397 20.7238 6.35721 20.692 6.36308C17.9246 6.844 14.9799 7.78288 12.1514 9.10721C5.34089 12.2948 0.835846 16.9553 1.18308 20.4317C0.738112 20.6312 0.387572 20.9449 0.186619 21.3236C-0.0143333 21.7023 -0.0542909 22.1244 0.0730346 22.5235C0.20036 22.9226 0.48774 23.2761 0.889952 23.5283C1.29216 23.7805 1.78637 23.917 2.29481 23.9165C2.88877 23.8992 3.45127 23.6957 3.8639 23.3488C4.27653 23.002 4.50711 22.5388 4.50711 22.0569C4.50711 21.575 4.27653 21.1119 3.8639 20.765C3.45127 20.4182 2.88877 20.2147 2.29481 20.1973C2.23818 20.1973 2.18304 20.2009 2.12641 20.2045C1.97738 17.1112 6.21567 12.783 12.6297 9.78025C15.3748 8.49579 18.2271 7.58592 20.8932 7.12192C21.0081 7.10076 21.1094 7.04605 21.1778 6.96823C21.2461 6.8904 21.2768 6.7949 21.2639 6.69993C21.251 6.60496 21.1955 6.51715 21.1079 6.45325C21.0203 6.38934 20.9067 6.35381 20.7889 6.35342ZM16.4984 13.8898C16.3862 13.8907 16.2744 13.9009 16.1646 13.92C15.7485 13.9928 15.3827 14.1925 15.1429 14.4777C14.9031 14.7629 14.8077 15.112 14.8763 15.4527C14.9449 15.7934 15.1723 16.0997 15.5115 16.3083C15.8507 16.5169 16.2758 16.6119 16.6989 16.5736C17.122 16.5353 17.5108 16.3667 17.7849 16.1026C18.0591 15.8384 18.1976 15.499 18.1718 15.1545C18.1461 14.8099 17.9581 14.4865 17.6467 14.2511C17.3352 14.0158 16.9242 13.8864 16.4984 13.8898ZM5.3692 16.1192C5.30617 16.1168 5.24316 16.1245 5.18383 16.1419C5.12449 16.1593 5.06999 16.1861 5.02347 16.2207C4.97692 16.255 4.93919 16.2964 4.91242 16.3426C4.88565 16.3887 4.87037 16.4387 4.86747 16.4897C4.86456 16.5407 4.87408 16.5916 4.89548 16.6395C4.91687 16.6875 4.94973 16.7316 4.99217 16.7693C6.88181 18.4525 9.33776 20.0318 12.1365 21.3428C18.7159 24.424 25.7067 25.3122 29.3653 23.5661C29.7543 23.7941 30.2221 23.9167 30.7021 23.9165C31.2066 23.9171 31.6973 23.7828 32.0982 23.5344C32.4991 23.2861 32.7879 22.9376 32.92 22.5428C33.052 22.1479 33.02 21.7288 32.8287 21.3503C32.6374 20.9717 32.2977 20.6548 31.8619 20.4486C31.4262 20.2424 30.9188 20.1583 30.4182 20.2095C29.9177 20.2606 29.4518 20.444 29.0928 20.7314C28.7337 21.0188 28.5014 21.3941 28.4319 21.7992C28.3624 22.2044 28.4594 22.6169 28.7081 22.9728C25.3625 24.4397 18.8262 23.577 12.6163 20.6698C9.89958 19.3986 7.52262 17.8688 5.70153 16.246C5.65923 16.2081 5.60808 16.1774 5.55104 16.1556C5.49399 16.1338 5.43219 16.1215 5.3692 16.1192ZM2.29481 20.973C2.64894 20.973 2.98857 21.0871 3.23898 21.2901C3.4894 21.4932 3.63008 21.7686 3.63008 22.0557C3.63008 22.3428 3.4894 22.6182 3.23898 22.8213C2.98857 23.0243 2.64894 23.1384 2.29481 23.1384C1.94067 23.1384 1.60104 23.0243 1.35063 22.8213C1.10022 22.6182 0.959537 22.3428 0.959537 22.0557C0.959537 21.7686 1.10022 21.4932 1.35063 21.2901C1.60104 21.0871 1.94067 20.973 2.29481 20.973ZM30.7021 20.973C31.0562 20.973 31.3958 21.0871 31.6462 21.2901C31.8967 21.4932 32.0373 21.7686 32.0373 22.0557C32.0373 22.3428 31.8967 22.6182 31.6462 22.8213C31.3958 23.0243 31.0562 23.1384 30.7021 23.1384C30.3804 23.1386 30.0695 23.0441 29.8273 22.8725L29.8183 22.8592C29.7808 22.8145 29.732 22.7766 29.6753 22.7481C29.513 22.5899 29.4097 22.3976 29.3774 22.1935C29.3451 21.9895 29.3852 21.7822 29.4929 21.596C29.6006 21.4097 29.7716 21.2522 29.9857 21.1419C30.1999 21.0316 30.4484 20.973 30.7021 20.973ZM9.83103 22.6273C9.7521 22.6239 9.67338 22.6364 9.60185 22.6637C9.53032 22.6909 9.46821 22.7321 9.42102 22.7835C9.37383 22.8349 9.34304 22.895 9.33138 22.9584C9.31971 23.0218 9.32753 23.0865 9.35415 23.1468C10.9532 26.7694 13.5716 29 16.5133 29C18.6593 29 20.6473 27.8134 22.1957 25.7242C22.2609 25.6359 22.2802 25.5302 22.2495 25.4303C22.2187 25.3304 22.1405 25.2445 22.0318 25.1913C21.9777 25.165 21.9179 25.1475 21.8555 25.1399C21.7932 25.1323 21.7296 25.1348 21.6684 25.1471C21.6073 25.1595 21.5497 25.1815 21.499 25.2119C21.4483 25.2423 21.4055 25.2804 21.3731 25.3243C19.9812 27.2008 18.2733 28.223 16.5148 28.223C14.0678 28.223 11.7341 26.2329 10.2558 22.8846C10.2239 22.8125 10.1664 22.7495 10.0906 22.7037C10.0148 22.6579 9.92395 22.6313 9.82954 22.6273H9.83103Z" fill="#802BB1"/>
<path d="M22 17.7778V12.2222C22 11.0178 19.7106 10 17 10C14.2894 10 12 11.0178 12 12.2222V17.7778C12 18.9822 14.2894 20 17 20C19.7106 20 22 18.9822 22 17.7778ZM17 11.1111C19.3069 11.1111 20.7069 11.9483 20.75 12.2189C20.7069 12.4961 19.3069 13.3333 17 13.3333C14.6931 13.3333 13.2931 12.4961 13.25 12.2256C13.2931 11.9483 14.6931 11.1111 17 11.1111ZM13.25 13.6706C14.1744 14.1411 15.5231 14.4444 17 14.4444C18.4769 14.4444 19.8256 14.1411 20.75 13.6706V14.9967C20.7069 15.2739 19.3069 16.1111 17 16.1111C14.6931 16.1111 13.2931 15.2739 13.25 15V13.6706ZM13.25 17.7778V16.4483C14.1744 16.9189 15.5231 17.2222 17 17.2222C18.4769 17.2222 19.8256 16.9189 20.75 16.4483V17.7744C20.7069 18.0517 19.3069 18.8889 17 18.8889C14.6931 18.8889 13.2931 18.0517 13.25 17.7778Z" fill="#802BB1"/>
</svg>
