<svg width="25" height="25" viewBox="0 0 25 25" fill="none" xmlns="http://www.w3.org/2000/svg">
<path d="M9.13517 16.6667C6.08631 16.6667 0 18.5278 0 22.2222V25H18.2703V22.2222C18.2703 18.5278 12.184 16.6667 9.13517 16.6667ZM24.094 5.33334C24.1054 5.18056 24.1169 5.02778 24.1169 4.86111C24.1169 4.69445 24.1054 4.54167 24.0826 4.38889L24.9276 3.58334C25.0075 3.51389 25.019 3.375 24.9733 3.27778L24.174 1.59722C24.1283 1.48611 24.0141 1.45834 23.9342 1.48611L22.9521 1.97222C22.7466 1.77778 22.5182 1.625 22.2784 1.5L22.13 0.208336C22.1214 0.149731 22.096 0.0967001 22.0584 0.0585884C22.0208 0.0204766 21.9734 -0.000270444 21.9244 2.66227e-06H20.3258C20.223 2.66227e-06 20.1431 0.0833361 20.1316 0.208336L19.9832 1.5C19.7434 1.625 19.515 1.79167 19.3095 1.97222L18.316 1.48611C18.2247 1.44445 18.1219 1.48611 18.0762 1.59722L17.2769 3.27778C17.2312 3.38889 17.2426 3.51389 17.3226 3.58334L18.1676 4.38889C18.1222 4.70128 18.1222 5.02094 18.1676 5.33334L17.3226 6.13889C17.2426 6.20834 17.2312 6.34722 17.2769 6.44445L18.0762 8.125C18.1219 8.23611 18.2361 8.26389 18.316 8.23611L19.3095 7.75C19.515 7.94445 19.7434 8.09722 19.9832 8.22222L20.1316 9.51389C20.1431 9.63889 20.223 9.72222 20.3258 9.72222H21.9244C22.0272 9.72222 22.1071 9.63889 22.1185 9.51389L22.267 8.22222C22.5068 8.09722 22.7352 7.93056 22.9407 7.75L23.9342 8.23611C24.0255 8.27778 24.1283 8.23611 24.174 8.125L24.9733 6.44445C25.019 6.33333 25.0075 6.20834 24.9276 6.13889L24.094 5.33334ZM21.1251 6.59722C20.7465 6.59722 20.3835 6.41431 20.1158 6.08873C19.8481 5.76314 19.6977 5.32156 19.6977 4.86111C19.6977 4.40067 19.8481 3.95908 20.1158 3.6335C20.3835 3.30791 20.7465 3.125 21.1251 3.125C21.5037 3.125 21.8667 3.30791 22.1344 3.6335C22.4021 3.95908 22.5525 4.40067 22.5525 4.86111C22.5525 5.32156 22.4021 5.76314 22.1344 6.08873C21.8667 6.41431 21.5037 6.59722 21.1251 6.59722ZM21.6047 12.0556L21.0337 10.8472C20.9995 10.7639 20.9195 10.7361 20.8625 10.7639L20.1545 11.1111C20.006 10.9722 19.8462 10.8611 19.6749 10.7778L19.5721 9.86111C19.5604 9.82081 19.5388 9.78587 19.5102 9.76102C19.4816 9.73617 19.4474 9.72263 19.4122 9.72222H18.2703C18.2018 9.72222 18.1447 9.77778 18.1333 9.875L18.0306 10.7917C17.8593 10.875 17.6994 11 17.551 11.125L16.843 10.7778C16.7745 10.75 16.706 10.7778 16.6717 10.8611L16.1007 12.0694C16.0665 12.1528 16.0779 12.2361 16.135 12.2917L16.7402 12.8611C16.7288 12.9722 16.7174 13.0833 16.7174 13.1944C16.7174 13.3056 16.7288 13.4306 16.7402 13.5278L16.135 14.0972C16.0779 14.1528 16.0665 14.25 16.1007 14.3194L16.6717 15.5278C16.706 15.6111 16.7859 15.6389 16.843 15.6111L17.551 15.2639C17.6994 15.4028 17.8593 15.5139 18.0306 15.5972L18.1333 16.5139C18.1447 16.6111 18.2018 16.6667 18.2703 16.6667H19.4122C19.4808 16.6667 19.5493 16.6111 19.5493 16.5139L19.652 15.5972C19.8233 15.5139 19.9832 15.3889 20.1316 15.2639L20.8396 15.6111C20.9081 15.6389 20.9766 15.6111 21.0109 15.5278L21.5819 14.3194C21.6161 14.2361 21.6047 14.1528 21.5476 14.0972L20.9538 13.5278C20.9652 13.4167 20.9766 13.3056 20.9766 13.1944C20.9766 13.0833 20.9652 12.9583 20.9538 12.8611L21.559 12.2917C21.6161 12.2361 21.6275 12.1389 21.6047 12.0556ZM18.8413 14.3472C18.316 14.3472 17.8935 13.8194 17.8935 13.1944C17.8935 12.5556 18.3274 12.0417 18.8413 12.0417C19.3552 12.0417 19.7891 12.5694 19.7891 13.1944C19.7891 13.8333 19.3666 14.3472 18.8413 14.3472ZM4.27069 8.33333H14.0111C14.3194 8.33333 14.5706 8.02778 14.5706 7.65278V7.625C14.5706 7.44451 14.5117 7.2714 14.4067 7.14378C14.3018 7.01615 14.1595 6.94445 14.0111 6.94445H13.7028C13.7028 4.88889 12.7778 3.125 11.419 2.15278V3.47222C11.419 3.86111 11.1678 4.16667 10.848 4.16667C10.5283 4.16667 10.2771 3.86111 10.2771 3.47222V1.58334C9.91166 1.47222 9.53484 1.38889 9.13517 1.38889C8.73551 1.38889 8.35868 1.47222 7.99328 1.58334V3.47222C7.99328 3.86111 7.74206 4.16667 7.42233 4.16667C7.1026 4.16667 6.85138 3.86111 6.85138 3.47222V2.15278C5.49252 3.125 4.56759 4.88889 4.56759 6.94445H4.27069C4.19722 6.94445 4.12446 6.96205 4.05657 6.99625C3.98869 7.03045 3.927 7.08058 3.87505 7.14378C3.82309 7.20697 3.78188 7.282 3.75376 7.36456C3.72564 7.44713 3.71116 7.53563 3.71116 7.625V7.66667C3.71116 8.02778 3.96238 8.33333 4.27069 8.33333ZM9.13517 13.8889C11.2591 13.8889 13.029 12.1111 13.5429 9.72222H4.72745C5.24131 12.1111 7.01125 13.8889 9.13517 13.8889Z" fill="#1E9C83" fill-opacity="0.62"/>
</svg>
