<svg width="30" height="30" viewBox="0 0 30 30" fill="none" xmlns="http://www.w3.org/2000/svg">
<path d="M7.39941 13.2001H8.99961V22.8001H11.3996V14.4001H13.7996V22.8001H16.1996V14.4001H18.5996V22.8001H20.9996V13.2001H22.5992C23.0408 13.2001 23.3996 12.7585 23.3996 12.3607C23.3996 12.1201 23.267 11.8489 23.0666 11.7181L23.0678 11.6869L23.0552 11.6647L23.1356 11.6449L15.5996 7.7635V6.6283C16.7996 7.2637 17.9702 6.1693 19.7996 6.8275V4.3201C17.969 3.6625 16.7996 4.7563 15.5996 4.1209V3.9601C15.5996 3.7615 15.221 3.6001 14.9996 3.6001C14.7782 3.6001 14.3996 3.7615 14.3996 3.9601V7.7635L6.86421 11.6371L7.02681 11.6497L7.19961 11.6563V11.6575C6.59961 11.7883 6.73401 12.1195 6.73401 12.3601C6.73341 12.7585 6.95781 13.2001 7.39941 13.2001ZM8.39961 23.4001L6.59961 25.2001H23.3996L21.5996 23.4001H8.39961ZM21.5996 13.8001V22.8001H22.1306L22.3652 23.1319L23.9648 24.6313L24.5306 25.2001H29.3996V13.8001H21.5996ZM25.1996 21.0001H23.3996V19.2001H25.1996V21.0001ZM25.1996 17.4001H23.3996V15.6001H25.1996V17.4001ZM27.5996 21.0001H26.3996V19.2001H27.5996V21.0001ZM27.5996 17.4001H26.3996V15.6001H27.5996V17.4001ZM7.86801 22.8001H8.39961V13.8001H0.599609V25.2001H5.46801L6.03321 24.6913L7.63341 23.1313L7.86801 22.8001ZM3.59961 21.0001H2.39961V19.2001H3.59961V21.0001ZM3.59961 17.4001H2.39961V15.6001H3.59961V17.4001ZM6.59961 21.0001H4.79961V19.2001H6.59961V21.0001ZM6.59961 17.4001H4.79961V15.6001H6.59961V17.4001Z" fill="black"/>
</svg>
