<svg width="25" height="25" viewBox="0 0 25 25" fill="none" xmlns="http://www.w3.org/2000/svg">
<path fill-rule="evenodd" clip-rule="evenodd" d="M18.4104 15.7717C15.7557 17.3311 12.526 18.403 9.53848 18.8186C9.36864 19.4174 8.98936 19.9353 8.46973 20.278C9.26973 21.9858 10.4213 23.5389 11.8119 24.9452C13.815 25.0454 15.8127 24.6612 17.6356 23.825C19.4586 22.9889 21.053 21.7255 22.2838 20.142C22.3291 20.0827 22.3697 20.017 22.4135 19.9561C22.0322 18.528 21.401 17.1686 20.6244 15.8249C20.4838 15.8655 20.3494 15.8967 20.2166 15.9217C19.9932 15.9842 19.7619 16.028 19.5197 16.028C19.1355 16.0258 18.7566 15.9383 18.4104 15.7717Z" fill="#3B7AA8"/>
<path fill-rule="evenodd" clip-rule="evenodd" d="M14.1424 8.58115C13.1437 7.8577 12.0976 7.20206 11.0112 6.61865C10.7743 7.18425 10.3459 7.64843 9.80109 7.92984C9.25627 8.21124 8.6298 8.29192 8.03147 8.15772C7.39553 10.5562 7.05647 13.0983 7.23303 15.4921C7.80682 15.5334 8.35085 15.7633 8.7804 16.1459C9.20996 16.5286 9.50094 17.0425 9.60803 17.6077C12.2565 17.1718 15.0299 16.2343 17.369 14.8921C17.0675 14.4563 16.9056 13.9392 16.9049 13.4093C16.9049 12.764 17.1487 12.1812 17.5346 11.7249C16.5127 10.5749 15.3643 9.47022 14.1424 8.58115Z" fill="#3B7AA8"/>
<path fill-rule="evenodd" clip-rule="evenodd" d="M6.24977 15.6077C6.03571 13.0545 6.41227 10.3077 7.09508 7.74517C6.75127 7.50428 6.47053 7.18412 6.27662 6.81179C6.0827 6.43946 5.98131 6.02591 5.98102 5.6061C5.98102 5.29829 6.04196 5.00298 6.14352 4.72798C5.12325 4.54289 4.09357 4.41405 3.05914 4.34204C2.92008 4.50454 2.77008 4.66079 2.63883 4.83267C1.35737 6.48043 0.509926 8.42345 0.174152 10.4837C-0.161621 12.5439 0.0250145 14.6555 0.716957 16.6249C1.9143 17.1346 3.17357 17.4845 4.46227 17.6655C4.54176 17.1911 4.75075 16.7479 5.06617 16.3848C5.38159 16.0217 5.79119 15.7527 6.24977 15.6077Z" fill="#3B7AA8"/>
<path fill-rule="evenodd" clip-rule="evenodd" d="M21.7623 15.1388C21.717 15.1966 21.6623 15.2435 21.6123 15.2951C22.2889 16.4451 22.8607 17.6107 23.2576 18.8388C24.0992 17.4108 24.6477 15.8294 24.8709 14.1869C25.0941 12.5445 24.9876 10.874 24.5576 9.27319C24.417 9.48101 24.2826 9.69038 24.1342 9.89194C23.4529 10.831 22.767 11.7935 22.0186 12.6607C22.0889 12.8982 22.1373 13.1466 22.1373 13.4091V13.4154C22.2686 13.9998 22.1576 14.6326 21.7623 15.1388Z" fill="#3B7AA8"/>
<path fill-rule="evenodd" clip-rule="evenodd" d="M11.1936 5.38584C12.442 6.03271 13.6686 6.78896 14.8342 7.63584C16.1467 8.59052 17.3764 9.78115 18.4654 11.0171C18.7889 10.8733 19.1436 10.7905 19.5217 10.7905C20.3029 10.7905 20.9982 11.1421 21.4779 11.6843C22.1092 10.9155 22.7014 10.0874 23.292 9.27802C23.5951 8.85927 23.8732 8.42959 24.142 7.99677C23.2114 5.56764 21.5426 3.49144 19.3703 2.0603C17.1981 0.629155 14.6318 -0.0848855 12.0326 0.0186479C11.8529 0.246773 11.6748 0.471773 11.5029 0.704585C10.8764 1.56709 10.3482 2.39209 9.87793 3.2624C9.93887 3.30771 9.97793 3.36552 10.0342 3.41865C10.6857 3.8499 11.1232 4.56552 11.1936 5.38584Z" fill="#3B7AA8"/>
<path fill-rule="evenodd" clip-rule="evenodd" d="M4.49805 18.6953C3.39623 18.5557 2.31215 18.3006 1.26367 17.9343C2.11943 19.7192 3.38912 21.2738 4.96707 22.4688C6.54502 23.6638 8.38558 24.4646 10.3355 24.8046C9.22514 23.5599 8.30239 22.1597 7.59648 20.6484C6.92718 20.7928 6.22792 20.6693 5.64868 20.3041C5.06945 19.939 4.65637 19.3614 4.49805 18.6953Z" fill="#3B7AA8"/>
<path fill-rule="evenodd" clip-rule="evenodd" d="M7.05293 3.50298C7.28544 3.24595 7.57897 3.05166 7.90641 2.93806C8.23384 2.82445 8.58463 2.79519 8.92637 2.85298C9.41387 1.93735 9.96387 1.06704 10.6154 0.162354C8.12895 0.541865 5.81555 1.66506 3.97949 3.38423C4.90137 3.48735 5.81699 3.60298 6.73106 3.77798C6.82949 3.67798 6.93887 3.58892 7.05293 3.50298Z" fill="#3B7AA8"/>
</svg>
