<svg width="58" height="40" viewBox="0 0 58 40" fill="none" xmlns="http://www.w3.org/2000/svg">
<path d="M37.8002 34.4L32.0002 26.67V22.5L33.3502 20.81C33.6102 20.48 33.3802 20 32.9602 20H27.0402C26.6202 20 26.3902 20.48 26.6502 20.81L28.0002 22.5V26.67L22.2002 34.4C21.7102 35.06 22.1802 36 23.0002 36H37.0002C37.8202 36 38.2902 35.06 37.8002 34.4Z" fill="#1F928B"/>
<g clip-path="url(#clip0)">
<path d="M40.2066 15.7331C39.341 14.2225 39.1647 12.8131 39.7803 11.7488C40.6041 10.32 42.671 9.82189 45.2847 10.2969C45.4347 10.3194 45.5385 10.4631 45.5128 10.6125C45.5061 10.6482 45.4922 10.6821 45.472 10.7123C45.4518 10.7425 45.4257 10.7682 45.3953 10.788C45.3649 10.8078 45.3308 10.8213 45.295 10.8275C45.2592 10.8338 45.2226 10.8327 45.1872 10.8244C42.7716 10.385 40.9291 10.8306 40.246 12.0156C39.7416 12.8881 39.891 14.1056 40.6722 15.4663C40.6916 15.497 40.7045 15.5314 40.7103 15.5673C40.716 15.6032 40.7144 15.6399 40.7056 15.6752C40.6968 15.7104 40.6809 15.7436 40.659 15.7725C40.637 15.8015 40.6094 15.8257 40.5778 15.8438C40.5464 15.8618 40.5117 15.8732 40.4757 15.8774C40.4397 15.8815 40.4032 15.8783 40.3685 15.868C40.3338 15.8577 40.3016 15.8404 40.2737 15.8172C40.2459 15.794 40.2231 15.7654 40.2066 15.7331ZM52.6385 10.6744C54.1685 10.6938 55.2685 11.1694 55.7666 12.0288C56.4503 13.2106 55.9166 15.0238 54.3341 16.8919C54.3087 16.9183 54.289 16.9496 54.2762 16.9839C54.2634 17.0182 54.2577 17.0548 54.2595 17.0914C54.2613 17.128 54.2706 17.1638 54.2867 17.1967C54.3029 17.2295 54.3256 17.2587 54.3535 17.2825C54.471 17.3831 54.6497 17.3638 54.741 17.24C56.4535 15.2188 57.0522 13.1838 56.2285 11.7613C55.6228 10.7131 54.3472 10.1594 52.6478 10.1369C52.6113 10.1345 52.5746 10.1396 52.5401 10.1519C52.5055 10.1643 52.4739 10.1835 52.4471 10.2085C52.4203 10.2335 52.3989 10.2637 52.3842 10.2973C52.3695 10.3309 52.3618 10.3671 52.3616 10.4038C52.3609 10.4403 52.3678 10.4765 52.3818 10.5102C52.3958 10.5439 52.4165 10.5744 52.4428 10.5997C52.4691 10.6251 52.5003 10.6447 52.5345 10.6575C52.5687 10.6702 52.6052 10.6758 52.6416 10.6738L52.6385 10.6744ZM51.0953 23.3731C51.0344 23.3366 50.9614 23.3257 50.8924 23.3428C50.8235 23.3599 50.764 23.4036 50.7272 23.4644C49.9491 24.76 48.9922 25.4631 48.0091 25.4631C46.6416 25.4631 45.3366 24.0925 44.5097 21.7813C44.4855 21.7144 44.4357 21.6599 44.3713 21.6297C44.3069 21.5995 44.2332 21.5961 44.1663 21.6203C44.0994 21.6445 44.0449 21.6943 44.0147 21.7587C43.9845 21.8231 43.9811 21.8969 44.0053 21.9638C44.8972 24.4606 46.3622 26 48.0091 26C49.2072 26 50.3172 25.1831 51.186 23.7406C51.2222 23.6796 51.2329 23.6068 51.2159 23.5379C51.1988 23.469 51.1553 23.4096 51.0947 23.3725L51.0953 23.3731ZM57.2247 21.2119C57.2216 22.2569 56.0428 22.8588 55.1935 22.2538C53.1491 23.4581 49.2397 22.8463 45.5616 20.7206C43.996 19.8156 42.6222 18.7281 41.5641 17.5663C41.5391 17.5402 41.5195 17.5094 41.5066 17.4756C41.4937 17.4419 41.4877 17.4059 41.4889 17.3698C41.4901 17.3336 41.4986 17.2981 41.5137 17.2653C41.5289 17.2325 41.5505 17.2031 41.5772 17.1788C41.6039 17.1546 41.6351 17.1361 41.6691 17.1243C41.7031 17.1125 41.7391 17.1077 41.775 17.1102C41.8109 17.1126 41.8459 17.1223 41.878 17.1386C41.91 17.1549 41.9385 17.1775 41.9616 17.205C42.9803 18.325 44.3085 19.3794 45.8285 20.255C49.3016 22.26 52.9572 22.8556 54.826 21.8438C54.7288 21.673 54.6722 21.4821 54.6604 21.286C54.6487 21.0898 54.6822 20.8936 54.7582 20.7125C54.8343 20.5313 54.951 20.37 55.0993 20.2411C55.2476 20.1121 55.4235 20.019 55.6135 19.9688C55.8037 19.9183 56.003 19.9123 56.1959 19.9512C56.3888 19.9902 56.5701 20.073 56.7259 20.1932C56.8817 20.3134 57.0077 20.4679 57.0942 20.6447C57.1807 20.8214 57.2254 21.0157 57.2247 21.2125V21.2119ZM41.3397 21.2119C41.3428 22.205 40.2622 22.8231 39.406 22.3188C38.5497 21.8175 38.566 20.5706 39.4353 20.0919C39.2397 17.6925 41.7597 14.48 45.5685 12.2794C47.1503 11.3681 48.7978 10.72 50.3441 10.3881C50.676 10.3425 50.7772 10.8181 50.4578 10.9125C48.9672 11.2313 47.3716 11.86 45.8353 12.745C42.2516 14.8156 39.8816 17.8006 39.9628 19.9356C39.9953 19.9325 40.0247 19.9294 40.0572 19.9294C40.7666 19.9294 41.3397 20.5056 41.3397 21.2119ZM46.7272 7.28252C46.786 5.63564 49.2335 5.63564 49.2922 7.28252C49.2922 7.30189 49.2891 7.32189 49.2891 7.33814C51.4147 8.43814 52.8891 12.1819 52.8891 16.5081C52.8891 18.2888 52.6416 19.9944 52.176 21.4756C52.1366 21.6219 51.9841 21.71 51.8372 21.6644C51.6903 21.6188 51.6128 21.4594 51.6647 21.3163C52.111 19.8875 52.3516 18.2338 52.3516 16.5081C52.3516 12.4325 50.9972 8.93002 49.1485 7.87189C48.5297 9.06627 46.7235 8.62689 46.7266 7.28252H46.7272ZM47.8141 15.5994C47.3128 15.71 46.9935 16.2019 47.101 16.7031C47.2085 17.2044 47.7035 17.5238 48.2047 17.4163C49.416 17.1556 49.0216 15.3394 47.8141 15.6V15.5994Z" fill="#1F928B"/>
</g>
<path d="M10.9999 7.83C10.4148 7.62312 9.90817 7.23984 9.54997 6.73298C9.19176 6.22613 8.99958 5.62065 8.99991 5C8.99991 4.20435 9.31598 3.44129 9.87859 2.87868C10.4412 2.31607 11.2043 2 11.9999 2C12.7956 2 13.5586 2.31607 14.1212 2.87868C14.6838 3.44129 14.9999 4.20435 14.9999 5C14.9999 6.31 14.1599 7.42 12.9999 7.83V10.64C12.3462 10.4543 11.6536 10.4543 10.9999 10.64V7.83ZM18.2999 21.1C17.7607 20.7929 17.3305 20.3256 17.0689 19.763C16.8073 19.2003 16.7272 18.5702 16.8399 17.96L14.3999 16.55C14.8799 16.09 15.2399 15.5 15.3999 14.82L17.8399 16.23C18.7799 15.42 20.1599 15.26 21.2899 15.91C22.7299 16.74 23.2199 18.57 22.3899 20C22.1943 20.3415 21.9332 20.6411 21.6215 20.8814C21.3098 21.1217 20.9536 21.298 20.5736 21.4002C20.1935 21.5024 19.797 21.5285 19.4068 21.477C19.0166 21.4255 18.6404 21.2974 18.2999 21.1ZM2.69991 15.9C3.82991 15.25 5.20991 15.42 6.14991 16.22L8.59991 14.81C8.75991 15.5 9.10991 16.08 9.59991 16.54L7.14991 17.95C7.37991 19.17 6.82991 20.45 5.69991 21.1C4.25991 21.93 2.42991 21.44 1.59991 20C1.40257 19.6587 1.27448 19.2817 1.22297 18.8908C1.17146 18.4999 1.19753 18.1027 1.2997 17.7219C1.40187 17.3411 1.57813 16.9841 1.8184 16.6715C2.05866 16.3589 2.35821 16.0967 2.69991 15.9ZM13.9999 14C13.9999 14.5304 13.7892 15.0391 13.4141 15.4142C13.0391 15.7893 12.5303 16 11.9999 16C11.4695 16 10.9608 15.7893 10.5857 15.4142C10.2106 15.0391 9.99991 14.5304 9.99991 14C9.99991 13.4696 10.2106 12.9609 10.5857 12.5858C10.9608 12.2107 11.4695 12 11.9999 12C12.5303 12 13.0391 12.2107 13.4141 12.5858C13.7892 12.9609 13.9999 13.4696 13.9999 14ZM16.9999 14L16.9699 14.57L15.4999 13.71C15.3999 12.64 14.8299 11.71 13.9999 11.12V9.41C15.7699 10.19 16.9999 11.95 16.9999 14ZM14.9699 18.03C14.1399 18.64 13.1099 19 11.9999 19C10.8899 19 9.85991 18.64 9.02991 18L10.4999 17.17C10.9599 17.38 11.4699 17.5 11.9999 17.5C12.5299 17.5 13.0299 17.38 13.4999 17.17L14.9699 18.03ZM7.02991 14.56L6.99991 14C6.99991 11.95 8.22991 10.19 9.99991 9.42V11.13C9.16991 11.71 8.59991 12.64 8.49991 13.7L7.02991 14.56Z" fill="#1F928B"/>
<defs>
<clipPath id="clip0">
<rect width="20" height="20" fill="white" transform="translate(38 6)"/>
</clipPath>
</defs>
</svg>
