<svg width="25" height="24" viewBox="0 0 25 24" fill="none" xmlns="http://www.w3.org/2000/svg">
<path d="M2.50005 16.25H22.5001V2.5H2.50005V16.25ZM13.7501 18.75V21.25H18.7501V23.75H6.25005V21.25H11.2501V18.75H1.24005C1.07591 18.749 0.913572 18.7157 0.762348 18.6518C0.611124 18.588 0.473985 18.4949 0.35879 18.378C0.243596 18.2611 0.152611 18.1225 0.0910517 17.9704C0.0294921 17.8182 -0.00143227 17.6554 5.09324e-05 17.4912V1.25875C5.09324e-05 0.56375 0.568801 0 1.24005 0H23.7601C24.4451 0 25.0001 0.56125 25.0001 1.25875V17.4912C25.0001 18.1863 24.4313 18.75 23.7601 18.75H13.7501Z" fill="#64E4CD"/>
</svg>
