<svg width="30" height="30" viewBox="0 0 30 30" fill="none" xmlns="http://www.w3.org/2000/svg">
<path d="M6.25 7.5C4.875 7.5 3.75 8.625 3.75 10C3.75 11.375 4.875 12.5 6.25 12.5C7.625 12.5 8.75 11.3875 8.75 10C8.75 8.6125 7.6375 7.5 6.25 7.5ZM15 5C14.5055 5 14.0222 5.14662 13.6111 5.42133C13.2 5.69603 12.8795 6.08648 12.6903 6.54329C12.5011 7.00011 12.4516 7.50277 12.548 7.98773C12.6445 8.47268 12.8826 8.91814 13.2322 9.26777C13.5819 9.6174 14.0273 9.8555 14.5123 9.95196C14.9972 10.0484 15.4999 9.99892 15.9567 9.8097C16.4135 9.62048 16.804 9.30005 17.0787 8.88893C17.3534 8.4778 17.5 7.99445 17.5 7.5C17.5 6.1125 16.3875 5 15 5ZM23.75 2.5C22.375 2.5 21.25 3.625 21.25 5C21.25 6.375 22.375 7.5 23.75 7.5C25.125 7.5 26.25 6.3875 26.25 5C26.25 3.6125 25.1375 2.5 23.75 2.5ZM4.375 13.75C3.3375 13.75 2.5 14.5875 2.5 15.625V21.25H3.75V27.5H8.75V21.25H10V15.625C10 14.5875 9.1625 13.75 8.125 13.75H4.375ZM13.125 11.25C12.0875 11.25 11.25 12.0875 11.25 13.125V18.75H12.5V25H17.5V18.75H18.75V13.125C18.75 12.0875 17.9125 11.25 16.875 11.25H13.125ZM21.875 8.75C20.8375 8.75 20 9.5875 20 10.625V16.25H21.25V22.5H26.25V16.25H27.5V10.625C27.5 9.5875 26.6625 8.75 25.625 8.75H21.875Z" fill="#83E2F6"/>
</svg>
