<svg width="25" height="25" viewBox="0 0 25 25" fill="none" xmlns="http://www.w3.org/2000/svg">
<path d="M12.5 21.875L14.5833 19.7917M17.1875 19.7917C17.8782 19.7917 18.5405 19.5173 19.0289 19.0289C19.5173 18.5405 19.7917 17.8782 19.7917 17.1875C19.7917 16.4968 19.5173 15.8345 19.0289 15.3461C18.5405 14.8577 17.8782 14.5833 17.1875 14.5833C16.4968 14.5833 15.8345 14.8577 15.3461 15.3461C14.8577 15.8345 14.5833 16.4968 14.5833 17.1875C14.5833 17.8782 14.8577 18.5405 15.3461 19.0289C15.8345 19.5173 16.4968 19.7917 17.1875 19.7917V19.7917ZM10.4167 5.20833L12.5 3.125L10.4167 5.20833ZM7.8125 10.4167C8.50317 10.4167 9.16555 10.1423 9.65392 9.65392C10.1423 9.16555 10.4167 8.50317 10.4167 7.8125C10.4167 7.12183 10.1423 6.45945 9.65392 5.97108C9.16555 5.4827 8.50317 5.20833 7.8125 5.20833C7.12183 5.20833 6.45945 5.4827 5.97108 5.97108C5.4827 6.45945 5.20833 7.12183 5.20833 7.8125C5.20833 8.50317 5.4827 9.16555 5.97108 9.65392C6.45945 10.1423 7.12183 10.4167 7.8125 10.4167V10.4167ZM8.33333 16.6667L16.6667 8.33333L8.33333 16.6667ZM5.72917 21.875C6.41983 21.875 7.08221 21.6006 7.57059 21.1123C8.05897 20.6239 8.33333 19.9615 8.33333 19.2708C8.33333 18.5802 8.05897 17.9178 7.57059 17.4294C7.08221 16.941 6.41983 16.6667 5.72917 16.6667C5.0385 16.6667 4.37612 16.941 3.88774 17.4294C3.39937 17.9178 3.125 18.5802 3.125 19.2708C3.125 19.9615 3.39937 20.6239 3.88774 21.1123C4.37612 21.6006 5.0385 21.875 5.72917 21.875V21.875ZM19.2708 8.33333C19.9615 8.33333 20.6239 8.05897 21.1123 7.57059C21.6006 7.08221 21.875 6.41983 21.875 5.72917C21.875 5.0385 21.6006 4.37612 21.1123 3.88774C20.6239 3.39937 19.9615 3.125 19.2708 3.125C18.5802 3.125 17.9178 3.39937 17.4294 3.88774C16.941 4.37612 16.6667 5.0385 16.6667 5.72917C16.6667 6.41983 16.941 7.08221 17.4294 7.57059C17.9178 8.05897 18.5802 8.33333 19.2708 8.33333Z" stroke="#1A48EE" stroke-opacity="0.62" stroke-width="2" stroke-linecap="round" stroke-linejoin="round"/>
</svg>
