<svg width="30" height="30" viewBox="0 0 30 30" fill="none" xmlns="http://www.w3.org/2000/svg">
<path d="M16.875 17.8125H22.5V19.6875H16.875V17.8125Z" fill="#CE4899"/>
<path d="M16.875 14.0625H28.125V15.9375H16.875V14.0625Z" fill="#CE4899"/>
<path d="M16.875 10.3125H28.125V12.1875H16.875V10.3125Z" fill="#CE4899"/>
<path d="M13.125 19.6875V17.8125H8.4375V15.9375H6.5625V17.8125H1.875V19.6875H9.57656C9.23196 21.0945 8.51426 22.3826 7.49906 23.4159C6.96689 22.8608 6.51072 22.2376 6.1425 21.5625H4.06219C4.53868 22.7067 5.22018 23.7542 6.07313 24.6534C5.06819 25.3691 3.97146 25.9461 2.8125 26.3691L3.47062 28.125C4.91294 27.5996 6.26856 26.8614 7.4925 25.935C8.72185 26.862 10.0828 27.6002 11.5303 28.125L12.1875 26.3691C11.029 25.9469 9.93265 25.3708 8.92781 24.6562C10.2512 23.288 11.1412 21.5595 11.4862 19.6875H13.125Z" fill="#CE4899"/>
<path d="M10.4691 12.1875H12.4997L8.20312 1.875H6.17156L1.875 12.1875H3.90562L4.6875 10.3125H9.68719L10.4691 12.1875ZM5.46844 8.4375L7.18687 4.3125L8.90625 8.4375H5.46844Z" fill="#CE4899"/>
</svg>
