<svg width="20" height="20" viewBox="0 0 20 20" fill="none" xmlns="http://www.w3.org/2000/svg">
<path d="M7.4997 10C8.49422 10 9.44801 9.47322 10.1512 8.53553C10.8545 7.59785 11.2496 6.32608 11.2496 5C11.2496 3.67392 10.8545 2.40215 10.1512 1.46447C9.44801 0.526784 8.49422 0 7.4997 0C6.50518 0 5.55139 0.526784 4.84816 1.46447C4.14492 2.40215 3.74985 3.67392 3.74985 5C3.74985 6.32608 4.14492 7.59785 4.84816 8.53553C5.55139 9.47322 6.50518 10 7.4997 10ZM9.9996 5C9.9996 5.88405 9.73622 6.7319 9.2674 7.35702C8.79858 7.98214 8.16272 8.33333 7.4997 8.33333C6.83669 8.33333 6.20083 7.98214 5.73201 7.35702C5.26318 6.7319 4.9998 5.88405 4.9998 5C4.9998 4.11594 5.26318 3.2681 5.73201 2.64298C6.20083 2.01786 6.83669 1.66667 7.4997 1.66667C8.16272 1.66667 8.79858 2.01786 9.2674 2.64298C9.73622 3.2681 9.9996 4.11594 9.9996 5ZM14.9994 18.3333C14.9994 20 13.7495 20 13.7495 20H1.24995C1.24995 20 0 20 0 18.3333C0 16.6667 1.24995 11.6667 7.4997 11.6667C13.7495 11.6667 14.9994 16.6667 14.9994 18.3333ZM13.7495 18.3267C13.7482 17.9167 13.557 16.6833 12.7095 15.5533C11.8945 14.4667 10.3608 13.3333 7.4997 13.3333C4.63732 13.3333 3.10488 14.4667 2.28991 15.5533C1.44244 16.6833 1.25245 17.9167 1.24995 18.3267H13.7495Z" fill="#0056D2"/>
<path fill-rule="evenodd" clip-rule="evenodd" d="M19.8161 5.24336C19.8743 5.32077 19.9204 5.41273 19.952 5.51397C19.9835 5.61521 19.9997 5.72375 19.9997 5.83336C19.9997 5.94297 19.9835 6.05151 19.952 6.15275C19.9204 6.25399 19.8743 6.34595 19.8161 6.42336L16.0662 11.4234C16.0082 11.501 15.9392 11.5625 15.8633 11.6045C15.7873 11.6466 15.7059 11.6682 15.6237 11.6682C15.5415 11.6682 15.4601 11.6466 15.3842 11.6045C15.3083 11.5625 15.2393 11.501 15.1813 11.4234L13.3063 8.92336C13.189 8.76688 13.123 8.55465 13.123 8.33336C13.123 8.11207 13.189 7.89984 13.3063 7.74336C13.4237 7.58688 13.5828 7.49897 13.7488 7.49897C13.9148 7.49897 14.0739 7.58688 14.1913 7.74336L15.6237 9.65503L18.9311 5.24336C18.9892 5.16575 19.0581 5.10418 19.1341 5.06217C19.21 5.02016 19.2914 4.99854 19.3736 4.99854C19.4558 4.99854 19.5372 5.02016 19.6131 5.06217C19.689 5.10418 19.758 5.16575 19.8161 5.24336Z" fill="#0056D2"/>
</svg>
