<svg width="40" height="30" viewBox="0 0 40 30" fill="none" xmlns="http://www.w3.org/2000/svg">
<g clip-path="url(#clip0)">
<path d="M11.9247 0.149727L12.6766 0.315352L13.2847 0.533477L13.7766 0.783477L14.151 1.05098L14.4341 1.3341L14.6422 1.6166L14.7754 1.89098L14.8572 2.14098L14.8929 2.35598L14.9097 2.52535L14.8997 2.63285V7.08285L14.8572 7.60723L14.7497 8.0666L14.5741 8.45098L14.3591 8.7666L14.1091 9.02348L13.836 9.2316L13.5429 9.3916L13.2497 9.50848L12.9766 9.59348L12.7266 9.64848L12.5116 9.6841L12.336 9.70098H7.35848L6.78598 9.74285L6.2941 9.85723L5.87723 10.0429L5.53535 10.2672L5.25848 10.5347L5.03348 10.8241L4.86785 11.1272L4.74348 11.4329L4.6591 11.7254L4.60098 11.9929L4.56785 12.2172L4.55223 12.3929V14.9422H2.69285L2.51785 14.9154L2.28285 14.8572L2.01973 14.7597L1.7266 14.6097L1.42723 14.3922L1.12785 14.0922L0.834727 13.7079L0.567852 13.216L0.332852 12.6079L0.160352 11.8754L0.0434766 10.9997L0.000976562 9.97473L0.0503516 8.9591L0.183477 8.09348L0.385352 7.36785L0.652227 6.77535L0.952227 6.30035L1.2841 5.93535L1.63598 5.65848L1.9841 5.46035L2.3191 5.32723L2.6191 5.24223L2.88598 5.19973L3.0841 5.19285H3.21723L3.26973 5.19973H10.0666V4.50973H5.19973L5.19285 2.21785L5.17723 1.90848L5.21973 1.62535L5.31035 1.36848L5.45035 1.13348L5.65848 0.919102L5.9191 0.726602L6.2341 0.560977L6.60223 0.407852L7.02535 0.284727L7.51035 0.184102L8.04035 0.102227L8.63285 0.0503516L9.27473 0.0178516L9.97473 0.000976562L11.0322 0.0434766L11.9247 0.149727ZM6.67723 1.79973L6.48473 2.07285L6.4166 2.41473L6.48473 2.75723L6.67723 3.03973L6.95035 3.22535L7.29223 3.30035L7.6341 3.22535L7.90723 3.03973L8.09973 2.75723L8.16785 2.41473L8.09973 2.07285L7.90723 1.79973L7.6341 1.61723L7.29223 1.54285L6.95035 1.61723L6.67723 1.79973ZM17.5854 5.09035L17.816 5.14285L18.0829 5.24035L18.376 5.39035L18.6754 5.61473L18.9754 5.90785L19.2679 6.29848L19.5347 6.7891L19.7666 7.39848L19.9422 8.1341L20.0591 8.99973L20.1016 10.0247L20.0497 11.0504L19.9154 11.916L19.7172 12.6316L19.4504 13.2241L19.1504 13.6991L18.8154 14.0741L18.4672 14.3472L18.1154 14.5491L17.7835 14.6822L17.4835 14.7572L17.2166 14.7997L17.0185 14.8154L16.8854 14.806H10.0329V15.4891H14.8997L14.9097 17.791L14.9254 18.0904L14.8829 18.3735L14.7922 18.6304L14.6491 18.871L14.441 19.0791L14.1841 19.2816L13.8685 19.4472L13.5004 19.5904L13.0772 19.7135L12.5922 19.821L12.0591 19.896L11.4697 19.9541L10.8247 19.9866L10.1247 19.9966L9.06723 19.9641L8.17535 19.8466L7.42598 19.681L6.81785 19.4729L6.32598 19.2222L5.9516 18.9454L5.66848 18.6622L5.46035 18.3797L5.32723 18.1054L5.24223 17.8554L5.20973 17.6472L5.19285 17.4804L5.19973 17.3735V12.9235L5.24223 12.3891L5.35285 11.9366L5.52535 11.556L5.74348 11.2366L5.99348 10.9735L6.26785 10.7716L6.56035 10.6047L6.85035 10.4879L7.12723 10.4029L7.37785 10.3547L7.59223 10.3222L7.87535 10.2954H12.7422L13.3179 10.2535L13.8097 10.1391L14.2266 9.96348L14.5685 9.7291L14.8429 9.4616L15.0672 9.17223L15.2366 8.8691L15.361 8.56973L15.4454 8.27973L15.5047 8.01285L15.5372 7.77848L15.5529 7.60285V5.05348H17.2947L17.4122 5.06035L17.5854 5.09035ZM12.191 16.9654L11.9985 17.2422L11.9335 17.5847L11.9985 17.9266L12.191 18.1997L12.4679 18.3916L12.8097 18.4566L13.1516 18.3916L13.4247 18.1997L13.6172 17.9266L13.6854 17.5847L13.6172 17.2422L13.4247 16.9654L13.1516 16.7735L12.8097 16.7085L12.4679 16.7735L12.191 16.9654Z" fill="#C4C4C4"/>
</g>
<path d="M26.4429 25.4658C26.4429 25.4658 25.4057 25.9115 27.1792 26.0608C29.328 26.2433 30.427 26.2177 32.7927 25.8852C32.7927 25.8852 33.4138 26.1752 34.284 26.4258C28.9755 28.1027 22.2715 26.3252 26.442 25.4658H26.4429ZM25.793 23.2783C25.793 23.2783 24.6279 23.9127 26.4022 24.0458C28.7027 24.2214 30.5109 24.2383 33.6485 23.7927C33.6485 23.7927 34.0815 24.1152 34.7661 24.2933C28.3493 25.6765 21.1997 24.4008 25.7938 23.2783H25.793ZM31.2607 19.5645C32.5665 20.6745 30.9159 21.6739 30.9159 21.6739C30.9159 21.6739 34.2348 20.407 32.7122 18.8257C31.2878 17.3476 30.1931 16.6157 36.1057 14.0857C36.1057 14.0857 26.825 15.7951 31.2599 19.5651L31.2607 19.5645ZM38.2782 27.0871C38.2782 27.0871 39.0468 27.5521 37.4352 27.914C34.3721 28.5971 24.6855 28.8021 21.9936 27.9396C21.0276 27.6302 22.8409 27.1977 23.4103 27.1096C24.006 27.0121 24.3458 27.0321 24.3458 27.0321C23.2688 26.4721 17.3909 28.129 21.3589 28.604C32.1843 29.8996 41.0888 28.0215 38.2782 27.0871ZM26.9411 21.0095C26.9411 21.0095 22.0122 21.872 25.1931 22.1845C26.5395 22.3177 29.2187 22.2889 31.7166 22.1327C33.7544 22.0052 35.8032 21.7352 35.8032 21.7352C35.8032 21.7352 35.0838 21.9627 34.5627 22.227C29.5576 23.197 19.8897 22.7445 22.674 21.752C25.0262 20.9151 26.9411 21.0095 26.9411 21.0095ZM35.7803 24.6552C40.8643 22.702 38.5121 20.8301 36.8751 21.0845C36.4726 21.1426 36.2921 21.1989 36.2921 21.1989C36.2921 21.1989 36.4379 21.0258 36.7251 20.9514C39.9729 20.1083 42.4708 23.4345 35.6787 24.7533C35.6787 24.7502 35.7592 24.7014 35.7803 24.6558V24.6552ZM32.713 10C32.713 10 35.5295 12.0769 30.0389 15.2732C25.6396 17.8382 29.0365 19.3001 30.0389 20.9701C27.4707 19.2607 25.5862 17.7576 26.8487 16.3576C28.7061 14.2969 33.8476 13.3007 32.713 10ZM27.4393 29.9384C32.3207 30.1659 39.8178 29.8084 40 28.1059C40 28.1059 39.6551 28.7502 35.9608 29.264C31.7954 29.8434 26.6539 29.7746 23.6043 29.404C23.6043 29.404 24.2314 29.7846 27.4385 29.9384H27.4393Z" fill="#C4C4C4"/>
<defs>
<clipPath id="clip0">
<rect width="20" height="20" fill="white"/>
</clipPath>
</defs>
</svg>
