<?xml version="1.0" standalone="no"?>
<!DOCTYPE svg PUBLIC "-//W3C//DTD SVG 20010904//EN"
 "http://www.w3.org/TR/2001/REC-SVG-20010904/DTD/svg10.dtd">
<svg version="1.0" xmlns="http://www.w3.org/2000/svg"
 width="300.000000pt" height="300.000000pt" viewBox="0 0 300.000000 300.000000"
 preserveAspectRatio="xMidYMid meet">

<g transform="translate(0.000000,300.000000) scale(0.100000,-0.100000)"
fill="#000000" stroke="none">
<path d="M0 1500 l0 -1500 1500 0 1500 0 0 1500 0 1500 -1500 0 -1500 0 0
-1500z m2560 983 c0 -54 -7 -375 -15 -713 -8 -338 -15 -630 -15 -647 l0 -33
-164 0 -164 0 -6 73 c-5 64 -27 1195 -26 1355 l0 62 195 0 195 0 0 -97z
m-1165 -478 c171 -44 317 -161 392 -315 60 -123 74 -183 80 -352 l5 -148 -517
0 -518 0 6 -52 c4 -30 22 -85 42 -125 129 -262 481 -308 782 -101 l42 28 41
-72 c22 -40 55 -101 72 -136 l33 -63 -30 -25 c-51 -41 -246 -133 -330 -155
-50 -13 -127 -22 -205 -26 -171 -7 -285 16 -430 88 -88 44 -117 65 -185 133
-114 115 -179 234 -210 384 -19 86 -19 278 -1 363 80 376 385 611 771 594 55
-2 127 -11 160 -20z m1155 -1335 l0 -180 -182 2 -183 3 -3 178 -2 177 185 0
185 0 0 -180z"/>
<path d="M1100 1721 c-117 -36 -206 -131 -244 -258 l-15 -53 321 0 321 0 -7
53 c-14 116 -101 231 -194 257 -42 11 -145 12 -182 1z"/>
</g>
</svg>
